<?xml version="1.0" standalone="no"?>
<!DOCTYPE svg PUBLIC "-//W3C//DTD SVG 20010904//EN"
 "http://www.w3.org/TR/2001/REC-SVG-20010904/DTD/svg10.dtd">
<svg version="1.0" xmlns="http://www.w3.org/2000/svg"
 width="260.000000pt" height="260.000000pt" viewBox="0 0 260.000000 260.000000"
 preserveAspectRatio="xMidYMid meet">
<metadata>
Created by potrace 1.14, written by Peter Selinger 2001-2017
</metadata>
<g transform="translate(0.000000,260.000000) scale(0.100000,-0.100000)"
fill="#000000" stroke="none">
<path d="M255 2372 l-30 -3 0 -1027 0 -1027 65 0 65 0 3 -67 3 -68 179 0 180
0 2 694 3 694 249 -374 c137 -206 252 -374 256 -374 3 0 11 5 16 10 8 8 27
-14 64 -69 29 -45 56 -79 60 -76 4 3 119 171 255 375 136 203 250 372 253 374
4 2 7 -249 7 -557 l0 -562 55 -1 c30 -1 61 -2 67 -3 8 -1 12 -16 12 -43 -3
-98 -23 -88 181 -88 l180 0 0 1030 0 1029 -52 0 c-90 -1 -84 -6 -83 66 1 59 0
65 -19 66 -12 0 -99 1 -194 1 l-174 0 -57 -88 c-31 -49 -113 -176 -181 -282
-69 -106 -132 -203 -140 -217 -79 -130 -216 -335 -222 -333 -9 4 -168 246
-168 257 0 4 -9 16 -20 26 -11 10 -20 22 -20 26 0 4 -39 68 -86 141 -48 73
-116 179 -153 235 -55 85 -70 103 -91 103 -21 0 -33 13 -65 65 -27 44 -46 65
-60 65 -191 4 -316 4 -340 2z"/>
</g>
</svg>
